<svg xmlns="http://www.w3.org/2000/svg" viewBox="0 0 2061.55 612.92" style="enable-background:new 0 0 2061.55 612.92" xml:space="preserve"><style>.st0{fill:#383838}.st4{display:inline}.st5{fill:#ccc}</style><switch><g><g id="Logo"><path class="st0" d="M769.52 357.12h-18.36c-1.09-5.28-2.97-9.92-5.66-13.92s-5.95-7.37-9.77-10.1c-3.83-2.74-8.06-4.8-12.69-6.18-4.64-1.38-9.47-2.07-14.51-2.07-9.18 0-17.48 2.32-24.91 6.96-7.43 4.64-13.32 11.47-17.69 20.5s-6.55 20.11-6.55 33.23c0 13.13 2.18 24.2 6.55 33.23s10.26 15.87 17.69 20.5c7.43 4.64 15.73 6.96 24.91 6.96 5.03 0 9.87-.69 14.51-2.07 4.64-1.38 8.87-3.44 12.69-6.18 3.82-2.74 7.08-6.12 9.77-10.14 2.69-4.02 4.58-8.65 5.66-13.88h18.36c-1.38 7.75-3.9 14.68-7.55 20.8-3.65 6.12-8.19 11.31-13.62 15.58s-11.51 7.51-18.25 9.73c-6.74 2.22-13.93 3.33-21.58 3.33-12.93 0-24.43-3.16-34.49-9.47-10.07-6.32-17.99-15.3-23.76-26.94-5.77-11.64-8.66-25.46-8.66-41.45 0-15.99 2.89-29.8 8.66-41.45s13.69-20.63 23.76-26.94c10.07-6.32 21.56-9.47 34.49-9.47 7.65 0 14.84 1.11 21.58 3.33 6.74 2.22 12.82 5.47 18.25 9.73 5.43 4.27 9.97 9.45 13.62 15.54 3.65 6.1 6.17 13.05 7.55 20.84zM838.77 463.71c-10.26 0-19.26-2.44-26.98-7.33-7.72-4.89-13.74-11.72-18.06-20.5-4.32-8.78-6.48-19.05-6.48-30.79 0-11.84 2.16-22.18 6.48-31.01 4.32-8.83 10.34-15.69 18.06-20.58 7.72-4.88 16.72-7.33 26.98-7.33 10.26 0 19.26 2.44 26.98 7.33 7.72 4.89 13.74 11.75 18.06 20.58 4.32 8.83 6.48 19.17 6.48 31.01 0 11.74-2.16 22.01-6.48 30.79-4.32 8.78-10.34 15.62-18.06 20.5-7.72 4.88-16.71 7.33-26.98 7.33zm0-15.69c7.8 0 14.21-2 19.24-6 5.03-4 8.76-9.25 11.18-15.77 2.42-6.51 3.63-13.57 3.63-21.17 0-7.6-1.21-14.68-3.63-21.24-2.42-6.56-6.14-11.87-11.18-15.91-5.03-4.04-11.45-6.07-19.24-6.07-7.8 0-14.21 2.02-19.25 6.07-5.03 4.05-8.76 9.35-11.18 15.91-2.42 6.56-3.63 13.64-3.63 21.24 0 7.6 1.21 14.66 3.63 21.17 2.42 6.51 6.14 11.77 11.18 15.77s11.46 6 19.25 6zM930.23 309.75v151.59h-17.47V309.75h17.47zM975.51 309.75v151.59h-17.47V309.75h17.47zM1036.77 464c-7.21 0-13.74-1.37-19.61-4.11-5.87-2.74-10.54-6.71-13.99-11.92-3.46-5.21-5.18-11.51-5.18-18.91 0-6.51 1.28-11.81 3.85-15.88 2.57-4.07 6-7.27 10.29-9.59 4.29-2.32 9.04-4.06 14.25-5.22s10.45-2.08 15.73-2.78c6.91-.89 12.52-1.57 16.84-2.04s7.48-1.27 9.47-2.41c2-1.13 3-3.11 3-5.92v-.59c0-7.3-1.99-12.98-5.96-17.02-3.97-4.05-9.98-6.07-18.02-6.07-8.34 0-14.88 1.83-19.62 5.48-4.74 3.65-8.07 7.55-9.99 11.69l-16.58-5.92c2.96-6.91 6.92-12.3 11.88-16.17s10.39-6.59 16.28-8.14c5.9-1.55 11.71-2.33 17.43-2.33 3.65 0 7.86.43 12.62 1.29 4.76.86 9.38 2.63 13.84 5.29 4.46 2.67 8.18 6.69 11.14 12.07 2.96 5.38 4.44 12.58 4.44 21.61v74.91h-17.47v-15.4h-.89c-1.18 2.47-3.16 5.11-5.92 7.92-2.76 2.81-6.44 5.21-11.03 7.18-4.59 2-10.19 2.98-16.8 2.98zm2.67-15.69c6.91 0 12.74-1.36 17.5-4.07s8.36-6.22 10.81-10.51c2.44-4.29 3.66-8.81 3.66-13.54V404.2c-.74.89-2.36 1.69-4.85 2.41-2.49.72-5.36 1.33-8.59 1.85-3.23.52-6.37.96-9.4 1.33-3.04.37-5.49.68-7.37.92-4.54.59-8.77 1.54-12.69 2.85s-7.08 3.26-9.47 5.85c-2.39 2.59-3.59 6.11-3.59 10.55 0 6.07 2.26 10.65 6.77 13.73 4.52 3.08 10.26 4.62 17.22 4.62zM1119.06 461.34V309.75h17.47v55.96h1.48c1.28-1.97 3.07-4.5 5.37-7.59 2.29-3.08 5.6-5.85 9.92-8.29 4.32-2.44 10.18-3.66 17.58-3.66 9.57 0 18.01 2.39 25.31 7.18 7.3 4.79 13 11.57 17.1 20.35 4.1 8.78 6.14 19.15 6.14 31.09 0 12.04-2.05 22.46-6.14 31.27s-9.77 15.62-17.02 20.43c-7.25 4.81-15.62 7.22-25.09 7.22-7.3 0-13.15-1.22-17.54-3.66-4.39-2.44-7.77-5.23-10.14-8.36-2.37-3.13-4.19-5.74-5.48-7.81h-2.07v17.47h-16.89zm17.17-56.85c0 8.59 1.26 16.15 3.77 22.69 2.52 6.54 6.19 11.65 11.03 15.32 4.84 3.68 10.76 5.51 17.76 5.51 7.3 0 13.41-1.94 18.32-5.81 4.91-3.87 8.61-9.1 11.1-15.69s3.74-13.93 3.74-22.02c0-7.99-1.22-15.21-3.66-21.65s-6.12-11.55-11.03-15.32c-4.91-3.77-11.07-5.66-18.47-5.66-7.11 0-13.08 1.79-17.91 5.37-4.84 3.58-8.49 8.56-10.96 14.95-2.46 6.39-3.69 13.83-3.69 22.31zM1288.09 463.71c-10.26 0-19.26-2.44-26.98-7.33-7.72-4.89-13.74-11.72-18.06-20.5-4.32-8.78-6.48-19.05-6.48-30.79 0-11.84 2.16-22.18 6.48-31.01 4.32-8.83 10.34-15.69 18.06-20.58 7.72-4.88 16.71-7.33 26.98-7.33 10.26 0 19.26 2.44 26.98 7.33 7.72 4.89 13.74 11.75 18.06 20.58 4.32 8.83 6.48 19.17 6.48 31.01 0 11.74-2.16 22.01-6.48 30.79-4.32 8.78-10.34 15.62-18.06 20.5-7.73 4.88-16.72 7.33-26.98 7.33zm0-15.69c7.8 0 14.21-2 19.25-6 5.03-4 8.76-9.25 11.18-15.77s3.63-13.57 3.63-21.17c0-7.6-1.21-14.68-3.63-21.24-2.42-6.56-6.14-11.87-11.18-15.91-5.03-4.04-11.45-6.07-19.25-6.07-7.8 0-14.21 2.02-19.25 6.07-5.03 4.05-8.76 9.35-11.18 15.91-2.42 6.56-3.63 13.64-3.63 21.24 0 7.6 1.21 14.66 3.63 21.17 2.42 6.51 6.14 11.77 11.18 15.77s11.45 6 19.25 6zM1362.08 461.34V347.65h16.88v17.17h1.18c2.07-5.62 5.82-10.19 11.25-13.69s11.55-5.25 18.36-5.25c1.28 0 2.89.03 4.81.07 1.92.05 3.38.12 4.37.22v17.76c-.59-.15-1.94-.38-4.03-.7-2.1-.32-4.31-.48-6.62-.48-5.53 0-10.45 1.15-14.77 3.44s-7.72 5.45-10.21 9.47c-2.49 4.02-3.74 8.6-3.74 13.73v71.95h-17.48zM1468.94 464c-7.21 0-13.74-1.37-19.61-4.11-5.87-2.74-10.54-6.71-13.99-11.92-3.46-5.21-5.18-11.51-5.18-18.91 0-6.51 1.28-11.81 3.85-15.88 2.57-4.07 6-7.27 10.29-9.59 4.29-2.32 9.04-4.06 14.25-5.22s10.45-2.08 15.73-2.78c6.91-.89 12.52-1.57 16.84-2.04s7.48-1.27 9.47-2.41c2-1.13 3-3.11 3-5.92v-.59c0-7.3-1.99-12.98-5.96-17.02-3.97-4.05-9.98-6.07-18.02-6.07-8.34 0-14.88 1.83-19.62 5.48-4.74 3.65-8.07 7.55-9.99 11.69l-16.58-5.92c2.96-6.91 6.92-12.3 11.88-16.17s10.39-6.59 16.28-8.14c5.9-1.55 11.71-2.33 17.43-2.33 3.65 0 7.86.43 12.62 1.29 4.76.86 9.38 2.63 13.84 5.29 4.46 2.67 8.18 6.69 11.14 12.07 2.96 5.38 4.44 12.58 4.44 21.61v74.91h-17.47v-15.4h-.89c-1.18 2.47-3.16 5.11-5.92 7.92-2.76 2.81-6.44 5.21-11.03 7.18-4.59 2-10.19 2.98-16.8 2.98zm2.66-15.69c6.91 0 12.74-1.36 17.5-4.07s8.36-6.22 10.81-10.51c2.44-4.29 3.66-8.81 3.66-13.54V404.2c-.74.89-2.36 1.69-4.85 2.41-2.49.72-5.36 1.33-8.59 1.85-3.23.52-6.37.96-9.4 1.33-3.04.37-5.49.68-7.37.92-4.54.59-8.77 1.54-12.69 2.85s-7.08 3.26-9.47 5.85c-2.39 2.59-3.59 6.11-3.59 10.55 0 6.07 2.26 10.65 6.77 13.73 4.53 3.08 10.26 4.62 17.22 4.62zM1598.29 347.65v14.8h-58.92v-14.8h58.92zm-41.74-27.24h17.47v108.36c0 4.94.73 8.62 2.18 11.07 1.46 2.44 3.33 4.07 5.62 4.89 2.29.81 4.72 1.22 7.29 1.22 1.92 0 3.5-.11 4.74-.33 1.23-.22 2.22-.41 2.96-.55l3.55 15.69c-1.18.44-2.84.9-4.96 1.37-2.12.47-4.81.7-8.07.7-4.93 0-9.76-1.06-14.47-3.18-4.71-2.12-8.61-5.35-11.69-9.7-3.08-4.34-4.63-9.82-4.63-16.43V320.41zM1666.66 463.71c-10.26 0-19.26-2.44-26.98-7.33-7.72-4.89-13.74-11.72-18.06-20.5-4.32-8.78-6.48-19.05-6.48-30.79 0-11.84 2.16-22.18 6.48-31.01 4.32-8.83 10.34-15.69 18.06-20.58 7.72-4.88 16.71-7.33 26.98-7.33 10.26 0 19.26 2.44 26.98 7.33 7.72 4.89 13.74 11.75 18.06 20.58 4.32 8.83 6.48 19.17 6.48 31.01 0 11.74-2.16 22.01-6.48 30.79-4.32 8.78-10.34 15.62-18.06 20.5-7.72 4.88-16.71 7.33-26.98 7.33zm0-15.69c7.8 0 14.21-2 19.25-6 5.03-4 8.76-9.25 11.18-15.77s3.63-13.57 3.63-21.17c0-7.6-1.21-14.68-3.63-21.24-2.42-6.56-6.14-11.87-11.18-15.91-5.03-4.04-11.45-6.07-19.25-6.07-7.8 0-14.21 2.02-19.25 6.07-5.03 4.05-8.76 9.35-11.18 15.91-2.42 6.56-3.63 13.64-3.63 21.24 0 7.6 1.21 14.66 3.63 21.17 2.42 6.51 6.14 11.77 11.18 15.77s11.46 6 19.25 6zM1740.66 461.34V347.65h16.88v17.17h1.18c2.07-5.62 5.82-10.19 11.25-13.69s11.55-5.25 18.36-5.25c1.28 0 2.89.03 4.81.07 1.92.05 3.38.12 4.37.22v17.76c-.59-.15-1.94-.38-4.03-.7-2.1-.32-4.31-.48-6.62-.48-5.53 0-10.45 1.15-14.77 3.44s-7.72 5.45-10.21 9.47c-2.49 4.02-3.74 8.6-3.74 13.73v71.95h-17.48zM1825.31 503.68c-2.96 0-5.6-.23-7.92-.7-2.32-.47-3.92-.92-4.81-1.37l4.44-15.4c6.37 1.63 11.67 1.59 15.91-.11s7.92-6.8 11.03-15.29l3.26-8.88-42.04-114.28h18.95l31.38 90.6h1.18l31.38-90.6 19.1.3-48.41 129.98c-2.17 5.77-4.86 10.57-8.07 14.4-3.21 3.82-6.92 6.67-11.14 8.55-4.21 1.86-8.96 2.8-14.24 2.8zM648.39 244.69v-93.1h56.19v10h-44.91v31.46h42v10h-42v31.64h45.64v10h-56.92zM724.31 244.69v-93.1h32.55c6.49 0 11.83 1.11 16.05 3.34 4.21 2.23 7.35 5.21 9.41 8.96 2.06 3.74 3.09 7.89 3.09 12.43 0 4-.7 7.3-2.11 9.91-1.41 2.61-3.26 4.67-5.55 6.18a25.313 25.313 0 0 1-7.43 3.36v.91c2.85.18 5.71 1.18 8.59 3s5.29 4.43 7.23 7.82c1.94 3.39 2.91 7.55 2.91 12.46 0 4.67-1.06 8.86-3.18 12.59-2.12 3.73-5.47 6.68-10.05 8.87-4.58 2.18-10.53 3.27-17.87 3.27h-33.64zm11.27-52.19h20.91c3.39 0 6.46-.67 9.21-2 2.74-1.33 4.92-3.21 6.55-5.64 1.62-2.42 2.43-5.27 2.43-8.55 0-4.09-1.42-7.57-4.27-10.43s-7.36-4.3-13.55-4.3h-21.27v30.92zm0 42.19h22.37c7.36 0 12.6-1.43 15.71-4.3 3.11-2.86 4.66-6.34 4.66-10.43 0-3.15-.8-6.07-2.41-8.75-1.61-2.68-3.89-4.83-6.86-6.46-2.97-1.62-6.49-2.43-10.55-2.43h-22.91v32.37zM806.95 244.69v-93.1h31.46c7.27 0 13.24 1.24 17.91 3.71s8.12 5.86 10.37 10.16c2.24 4.3 3.36 9.2 3.36 14.68s-1.12 10.35-3.36 14.59c-2.24 4.24-5.68 7.57-10.32 9.98s-10.56 3.61-17.78 3.61h-25.46v-10.18h25.09c4.97 0 8.98-.73 12.02-2.18 3.04-1.45 5.26-3.52 6.64-6.21 1.38-2.68 2.07-5.89 2.07-9.61 0-3.73-.7-6.99-2.09-9.77-1.39-2.79-3.62-4.95-6.68-6.48-3.06-1.53-7.11-2.3-12.14-2.3h-19.82v83.1h-11.27zm43.82-41.82 22.91 41.82h-13.09l-22.55-41.82h12.73zM891.95 244.69h-11.82l34.19-93.1h11.64l34.19 93.1h-11.82l-27.82-78.37h-.73l-27.83 78.37zm4.37-36.36h47.64v10h-47.64v-10zM985.32 151.59v93.1h-11.27v-93.1h11.27zM1081.05 151.59v93.1h-10.91l-50.73-73.1h-.91v73.1h-11.27v-93.1h10.91l50.92 73.28h.91v-73.28h11.08zM1153.88 174.87c-.55-4.61-2.76-8.18-6.64-10.73-3.88-2.55-8.64-3.82-14.27-3.82-4.12 0-7.72.67-10.8 2-3.08 1.33-5.47 3.17-7.18 5.5s-2.57 4.99-2.57 7.96c0 2.49.6 4.61 1.8 6.39 1.2 1.77 2.73 3.24 4.61 4.41 1.88 1.17 3.85 2.12 5.91 2.86 2.06.74 3.96 1.34 5.68 1.8l9.46 2.55c2.42.64 5.13 1.52 8.12 2.64a38.27 38.27 0 0 1 8.59 4.57c2.74 1.92 5.01 4.39 6.8 7.39s2.68 6.68 2.68 11.05c0 5.03-1.31 9.58-3.93 13.64-2.62 4.06-6.44 7.29-11.46 9.68-5.02 2.39-11.1 3.59-18.25 3.59-6.67 0-12.43-1.08-17.3-3.23-4.86-2.15-8.68-5.15-11.46-9-2.77-3.85-4.34-8.32-4.71-13.41h11.64c.3 3.52 1.49 6.42 3.57 8.71 2.08 2.29 4.71 3.99 7.91 5.09 3.2 1.11 6.64 1.66 10.34 1.66 4.3 0 8.17-.71 11.59-2.11s6.14-3.38 8.14-5.91 3-5.49 3-8.89c0-3.09-.86-5.61-2.59-7.55s-4-3.52-6.82-4.73c-2.82-1.21-5.86-2.27-9.14-3.18l-11.46-3.27c-7.27-2.09-13.03-5.08-17.27-8.96-4.24-3.88-6.36-8.96-6.36-15.23 0-5.21 1.42-9.77 4.25-13.66 2.83-3.89 6.65-6.92 11.46-9.09 4.8-2.17 10.17-3.25 16.12-3.25 6 0 11.33 1.07 16 3.21 4.67 2.14 8.37 5.05 11.11 8.75s4.19 7.9 4.34 12.59h-10.91z"/><linearGradient id="SVGID_1_" gradientUnits="userSpaceOnUse" x1="199.613" y1="410.798" x2="413.3" y2="197.111" gradientTransform="translate(-.613 3.117)"><stop offset="0" style="stop-color:#00a595"/><stop offset=".481" style="stop-color:#00c959"/><stop offset="1" style="stop-color:#9ce142"/></linearGradient><path d="M215.83 202.4c28.55-18.78 53.97-22.89 77.32-17.88v-.01c9.73.36 6.58-5.97 2.11-8.79-5.88-3.53-11.83-6.7-17.84-9.4-4.37-1.96-8.68-3.64-12.94-5.05l-25.1 6.78a44.071 44.071 0 0 0-19.76 11.46l-40.45 40.61a44.098 44.098 0 0 0-11.38 19.81l-1.54 5.78c15.63-15.94 31.86-31.65 49.58-43.31zm176.12 100.26c-.02-.01-.05-.03-.05-.04 6.22 3.09 12.08-.14 4.37-6.07-49.86-38-101.91-70.17-161.1-49.24-30.79 10.89-57.47 31.89-83.11 53.02-.86 5.95-.53 12.02 1.05 17.86l5.03 18.63.13-.1c31.09-24.14 63.25-49.1 102.81-58.66 44.09-10.66 88.47 3.12 130.87 24.6zm49.28-21.97c6.01 3.78 11.81 7.06 17.44 9.87l-13.82-51.16a44.071 44.071 0 0 0-11.46-19.76l-40.61-40.45a44.098 44.098 0 0 0-19.81-11.38l-55.4-14.73a44.154 44.154 0 0 0-22.85.05l-12.91 3.49c31.93 17.43 56.7 33.62 94.59 70.95 37.18 36.6 43.27 39.56 64.83 53.12zM270.91 404.33c-25.55-.43-47.41 4.62-67.5 12.76l16.72 16.65a44.098 44.098 0 0 0 19.81 11.38l55.4 14.73a44.154 44.154 0 0 0 22.85-.05l55.34-14.95c7.48-2.02 14.3-5.97 19.76-11.46l1.07-1.08c-40.82-15.6-82.15-27.28-123.45-27.98zM461.2 303.39c-39.47-19.89-65.32-44.75-71.72-51.19-30.13-30.26-100.06-99.05-171.46-46.5-18.54 13.64-36.83 30.31-53.82 47.79l-7.92 29.79c23.06-18.55 47.35-36 75.38-45.91 73.41-25.96 134.26 21.79 193.11 67.96 10.87 8.53 21.43 16.81 31.84 24.44l3.22-12.1c1-3.77 1.49-7.64 1.48-11.51-.02-.92-.06-1.85-.11-2.77zM262.01 281.9c-38.73 9.36-70.55 34.06-101.31 57.94-.48.37-.96.75-1.44 1.12l8.8 32.57a44.07 44.07 0 0 0 3.11 8.18c4.03-2.9 8.03-5.82 11.99-8.71 33.4-24.4 67.93-49.63 114.14-55.06 50.12-5.88 103.08 11.18 153.61 33.24l2.23-8.39c-59.49-37.33-126.03-76.62-191.13-60.89zm36.52 46.52c-27.43 3.22-50.25 13.7-71.86 27.2-7.69 4.98-4.75 10.11 2.64 7.92.01 0 .01 0 .02-.01 14.81-4.8 31.16-7.66 50.02-7.59 53.16.19 105.68 15.14 157.13 33.78a44.197 44.197 0 0 0 8.63-16.74l3.05-11.47c-49.67-21.8-101.49-38.74-149.63-33.09zm-119.14 64.74c.04.04.08.09.12.13l15.76 15.7c22.28-9.6 46.67-15.69 75.82-15.2 44.36.75 88.26 13.55 131.4 30.36l31.14-31.27c-50.64-18.26-102.27-32.81-154.29-33-42.5-.14-71.08 14.34-99.95 33.28z" style="fill:url(#SVGID_1_)"/><path style="fill:none;stroke:#00c959;stroke-width:4.8957;stroke-miterlimit:10" d="M554.39 148.82V464.1"/></g></g></switch></svg>