<svg class="svg-icon" style="width: 1em; height: 1em;vertical-align: middle;fill: currentColor;overflow: hidden;" viewBox="0 0 1024 1024" version="1.1" xmlns="http://www.w3.org/2000/svg"><path d="M667.428571 694.857143q0 18.857143-13.428571 32.285714T621.714286 740.571429t-32.285715-13.428572T576 694.857143t13.428571-32.285714T621.714286 649.142857t32.285714 13.428572 13.428571 32.285714z m146.285715 0q0 18.857143-13.428572 32.285714T768 740.571429t-32.285714-13.428572-13.428572-32.285714 13.428572-32.285714 32.285714-13.428572 32.285714 13.428572 13.428572 32.285714z m64 91.428571v-182.857143q0-7.428571-5.428572-12.857142t-12.857143-5.428572H164.571429q-7.428571 0-12.857143 5.428572T146.285714 603.428571v182.857143q0 7.428571 5.428572 12.857143t12.857143 5.428572h694.857142q7.428571 0 12.857143-5.428572t5.428572-12.857143zM174.857143 512h674.285714l-89.714286-275.428571q-2.285714-7.428571-9.142857-12.285715t-14.857143-4.857143H288.571429q-8 0-14.857143 4.857143T264.571429 236.571429z m776 91.428571v182.857143q0 37.714286-26.857143 64.571429t-64.571429 26.857143H164.571429q-37.714286 0-64.571429-26.857143T73.142857 786.285714v-182.857143q0-14.285714 9.142857-42.857142l112.571429-346.285715q9.714286-30.285714 36-49.142857t57.714286-18.857143h446.857142q31.428571 0 57.714286 18.857143t36 49.142857l112.571429 346.285715q9.142857 28.571429 9.142857 42.857142z"  /></svg>